<?xml version="1.0" standalone="no"?>
<!DOCTYPE svg PUBLIC "-//W3C//DTD SVG 20010904//EN"
 "http://www.w3.org/TR/2001/REC-SVG-20010904/DTD/svg10.dtd">
<svg version="1.0" xmlns="http://www.w3.org/2000/svg"
 width="512.000000pt" height="512.000000pt" viewBox="0 0 512.000000 512.000000"
 preserveAspectRatio="xMidYMid meet">

<g transform="translate(0.000000,512.000000) scale(0.100000,-0.100000)" stroke="none"  fill="#EC1D25">
<path d="M1308 4695 c-231 -39 -430 -146 -599 -323 -108 -113 -176 -219 -226
-354 -72 -192 -68 -98 -68 -1458 0 -1360 -4 -1266 68 -1458 56 -151 117 -242
247 -372 130 -130 222 -191 372 -247 189 -71 96 -67 1413 -71 1060 -3 1201 -1
1288 13 246 41 436 142 608 324 107 112 177 220 226 351 72 193 68 108 68
1465 0 1354 4 1261 -68 1453 -50 135 -118 241 -226 354 -172 181 -367 284
-606 323 -125 21 -2376 20 -2497 0z m1826 -852 c28 -26 52 -51 54 -55 2 -4
-242 -280 -542 -613 -300 -333 -546 -610 -546 -615 0 -5 246 -282 546 -615
300 -333 544 -609 542 -613 -4 -10 -104 -102 -110 -102 -9 0 -1193 1320 -1193
1330 0 10 1184 1330 1193 1330 3 0 28 -21 56 -47z"/>
</g>
</svg>
